<?xml version="1.0" standalone="no"?>
<!DOCTYPE svg PUBLIC "-//W3C//DTD SVG 20010904//EN"
 "http://www.w3.org/TR/2001/REC-SVG-20010904/DTD/svg10.dtd">
<svg version="1.0" xmlns="http://www.w3.org/2000/svg"
 width="800.000000pt" height="800.000000pt" viewBox="0 0 800.000000 800.000000"
 preserveAspectRatio="xMidYMid meet">
<metadata>
Created by potrace 1.14, written by Peter Selinger 2001-2017
</metadata>
<g transform="translate(0.000000,800.000000) scale(0.100000,-0.100000)"
fill="#000000" stroke="none">
<path d="M3770 7984 c-19 -2 -91 -9 -160 -15 -347 -29 -770 -133 -1118 -274
-146 -59 -414 -194 -559 -283 -648 -394 -1165 -956 -1502 -1632 -138 -277
-227 -517 -300 -809 -86 -340 -116 -598 -115 -981 0 -386 32 -643 124 -995 74
-285 157 -505 291 -775 196 -393 437 -728 749 -1040 654 -654 1497 -1054 2430
-1152 162 -17 618 -17 780 0 934 98 1775 497 2430 1152 575 575 958 1304 1104
2100 49 266 60 404 60 720 0 396 -31 648 -124 1005 -74 285 -157 505 -291 775
-476 955 -1314 1679 -2332 2014 -235 77 -570 148 -832 176 -102 11 -571 21
-635 14z m-710 -2619 c85 -3 398 -14 695 -25 297 -11 794 -29 1105 -40 311
-11 585 -25 609 -31 99 -23 195 -98 247 -191 l29 -53 0 -252 c0 -138 -3 -254
-6 -258 -4 -3 -337 5 -740 19 -404 15 -745 26 -758 26 l-24 0 6 94 5 93 -75 7
c-42 3 -127 6 -189 6 l-112 0 -6 -102 c-4 -57 -13 -312 -22 -568 -9 -256 -19
-548 -23 -650 -4 -102 -5 -187 -4 -189 5 -7 365 -21 375 -15 4 3 8 46 8 96 l0
90 148 -7 c255 -11 1244 -45 1310 -45 l62 0 -1 -117 c-1 -224 -13 -344 -42
-406 -51 -111 -156 -194 -272 -216 -33 -6 -242 -3 -615 9 -311 11 -916 31
-1345 45 -429 13 -800 28 -825 31 -158 21 -286 130 -325 279 -14 53 -14 92 -5
320 12 305 36 947 51 1400 7 210 16 341 25 380 32 131 152 247 285 275 24 5
96 7 159 5 63 -3 185 -7 270 -10z"/>
</g>
</svg>
