<?xml version="1.0" encoding="utf-8"?>
<!-- Generator: Adobe Illustrator 24.1.1, SVG Export Plug-In . SVG Version: 6.00 Build 0)  -->
<svg version="1.1" xmlns="http://www.w3.org/2000/svg" xmlns:xlink="http://www.w3.org/1999/xlink" x="0px" y="0px"
	 viewBox="0 0 5000 5000" style="enable-background:new 0 0 5000 5000;" xml:space="preserve">
<style type="text/css">
	.st0{fill:url(#SVGID_1_);}
	.st1{fill:#FFFFFF;}
	.st2{fill:#1654C1;}
</style>
<g>
	<linearGradient id="SVGID_1_" gradientUnits="userSpaceOnUse" x1="2500" y1="8.5034" x2="2500" y2="4937.4629">
		<stop  offset="0" style="stop-color:#1654C0"/>
		<stop  offset="1" style="stop-color:#1D63DB"/>
	</linearGradient>
	<circle class="st0" cx="2500" cy="2500" r="2500"/>
	<g>
		<path class="st1" d="M1991.34,3998.53c-2.03,0-4.08-0.34-6.07-1.05c-7.57-2.69-12.48-10.03-12.07-18.05l43.64-852.52
			l-675.15,135.33c-1.19,0.24-2.39,0.35-3.57,0.35c-6.17,0-12.02-3.15-15.39-8.51c-4.01-6.4-3.65-14.6,0.91-20.62l429.3-566.83
			l-349.17-573.86c-3.73-6.14-3.5-13.9,0.59-19.8c3.43-4.95,9.04-7.81,14.93-7.81c1.13,0,2.27,0.11,3.41,0.32l460.11,87.84
			l-391-894.25c-3.32-7.59-1.08-16.46,5.44-21.57c3.29-2.58,7.25-3.87,11.21-3.87c3.89,0,7.78,1.24,11.04,3.74l821.11,628.2
			l165.11-584.19c2.12-7.52,8.81-12.83,16.61-13.21c0.29-0.01,0.58-0.02,0.87-0.02c7.46,0,14.2,4.57,16.93,11.58l231.89,596.08
			l653.08-560c3.39-2.91,7.61-4.38,11.83-4.38c3.89,0,7.79,1.24,11.05,3.75c6.81,5.23,9.04,14.51,5.33,22.26l-346.6,723.77
			l539.97-15.39c0.17,0,0.35-0.01,0.52-0.01c6.85,0,13.14,3.86,16.23,10.01c3.17,6.3,2.4,13.87-1.96,19.41l-356.49,452.15
			l477.45,314.57c6.65,4.38,9.67,12.59,7.45,20.24s-9.17,12.96-17.14,13.1l-551.35,9.41l494.7,599.39
			c5.39,6.54,5.55,15.93,0.38,22.65c-3.53,4.58-8.9,7.08-14.4,7.08c-2.56,0-5.15-0.54-7.59-1.67l-725.66-334.34l-78.95,652.43
			c-0.91,7.51-6.38,13.67-13.72,15.47c-1.43,0.35-2.88,0.52-4.31,0.52c-5.91,0-11.56-2.89-15-7.92l-357.32-522.99l-493.49,675.74
			C2002.52,3995.86,1997.02,3998.53,1991.34,3998.53z"/>
		<path class="st2" d="M1508.45,1251.8l842.35,644.45l172.39-609.93l241.19,619.98l672.54-576.68l-359.46,750.62l569.73-16.23
			l-368.74,467.69l493.97,325.45l-589.05,10.05l518.71,628.48l-748.3-344.77l-81.94,677.18L2500,3283.86l-508.66,696.51
			l44.84-875.85l-698.05,139.92l436.77-576.68l-355.6-584.42l493.97,94.31L1508.45,1251.8 M1508.45,1215.47
			c-7.92,0-15.84,2.58-22.42,7.74c-13.04,10.22-17.51,27.97-10.87,43.15l377.19,862.67l-426.25-81.38
			c-2.27-0.43-4.56-0.65-6.82-0.65c-11.77,0-22.98,5.73-29.85,15.63c-8.19,11.8-8.65,27.32-1.18,39.59l342.75,563.3l-421.84,556.98
			c-9.11,12.03-9.84,28.45-1.82,41.24c6.73,10.73,18.44,17.03,30.77,17.03c2.37,0,4.76-0.23,7.15-0.71l652.24-130.74l-42.45,829.19
			c-0.82,16.05,8.99,30.73,24.14,36.1c3.98,1.41,8.09,2.09,12.14,2.09c11.37,0,22.37-5.34,29.35-14.91l478.33-654.98l342.82,501.76
			c6.87,10.06,18.18,15.84,30,15.84c2.86,0,5.75-0.34,8.62-1.04c14.7-3.59,25.63-15.91,27.45-30.93l75.95-627.68l703.02,323.91
			c4.89,2.25,10.07,3.34,15.19,3.34c11,0,21.74-5,28.8-14.17c10.34-13.43,10.02-32.22-0.76-45.3l-470.7-570.31l513.64-8.76
			c15.93-0.27,29.82-10.89,34.27-26.19c4.44-15.3-1.6-31.71-14.9-40.48l-460.93-303.68l344.24-436.62
			c8.73-11.08,10.27-26.21,3.93-38.81c-6.18-12.29-18.76-20.01-32.46-20.01c-0.35,0-0.69,0.01-1.04,0.01l-510.2,14.54l333.74-696.91
			c7.42-15.49,2.97-34.07-10.66-44.52c-6.54-5.01-14.33-7.5-22.11-7.5c-8.44,0-16.87,2.93-23.65,8.75l-633.62,543.31l-222.6-572.19
			c-5.45-14.01-18.94-23.16-33.85-23.16c-0.58,0-1.16,0.01-1.75,0.04c-15.6,0.75-28.98,11.38-33.23,26.41l-157.84,558.44
			l-799.86-611.95C1524.01,1217.96,1516.23,1215.47,1508.45,1215.47L1508.45,1215.47z"/>
	</g>
</g>
</svg>
