<svg xmlns="http://www.w3.org/2000/svg" xmlns:xlink="http://www.w3.org/1999/xlink" version="1.1" style="" xml:space="preserve" width="6586" height="1578"><rect id="backgroundrect" width="100%" height="100%" x="0" y="0" fill="none" stroke="none"/>

<g class="currentLayer" style=""><title>Layer 1</title><g id="svg_1" class="selected" fill="#ffffff" fill-opacity="1">
	<path d="M1948.48,261.28v4.15v7.25l-8.3,211.7l-847.63-29.05l2.07-106.88L884,342.23l-30.07,847.53l212.68,8.3l2.07-105.49   l849.73,30.07l-6.23,213.11c-2.77,55.46-24.57,103.62-65.38,144.51c-40.12,38.81-88.53,57.84-145.25,57.18h-2.08h-8.3   l-1484.66-49.19c-58.82-3.46-107.93-24.93-147.33-64.38c-39.45-40.12-59.15-88.23-59.15-144.28v-4.18v-8.3l38.4-1060.97   c0.67-56.05,21.42-104.49,62.22-145.33s89.58-61.25,146.3-61.25h2.07h8.3l1486.76,54.1c56.72,0.72,104.78,21.47,144.2,62.28   C1928.42,156.1,1948.48,204.54,1948.48,261.28z" id="svg_2" fill="#ffffff" fill-opacity="1"/>
	<path d="M3506.63,1439.72l-634.95,57.05l-42.52-478.3l-157.7,15.58l40.45,474.1l-634.95,53.82l-83-956.35v-8.3   c0-42.17,13.83-78.11,41.5-107.85c27.67-29.74,61.89-46.34,102.73-49.8l1118.43-97.5h8.3c41.5,0,77.11,13.86,106.85,41.55   c30.43,28.41,47.73,62.69,51.88,102.85L3506.63,1439.72z M2816.7,861.89l-21.8-239.75l-159.78,13.5l21.8,238.7L2816.7,861.89z" id="svg_3" fill="#ffffff" fill-opacity="1"/>
	<path d="M5044.95,638.02v2.08v4.15v8.3l-17.63,318.24c-3.48,42.17-19.73,77.77-48.78,106.77c-29.74,29.74-64.33,44.6-103.75,44.6   h-2.07h-4.15h-9.32l-637.03-34.22l-23.88,477.1l-637.03-32.18l57.08-1113.84l1275.08,65.58c41.5,3.46,76.78,19.7,105.83,48.72   C5029.73,563.76,5044.95,598.65,5044.95,638.02z M4402.75,699.45l-159.78-8.27l-12.45,236.63l159.78,9.3L4402.75,699.45z" id="svg_4" fill="#ffffff" fill-opacity="1"/>
	<path d="M6585.95,1323.48c0,42.17-13.83,78.08-41.5,107.77c-28.36,30.41-62.58,47.67-102.7,51.82l-1112.2,95.35h-14.52   c-41.5,0-77.13-13.83-106.88-41.5c-30.43-27.67-47.03-61.92-49.8-102.75l-15.55-157.73l635.98-57.08l6.23,81.13l158.75-15.55   L5923,1047.97l-634.95,55c-2.77,0.69-5.2,1.2-7.28,1.56s-4.15,0.51-6.23,0.51c-40.81,0-76.42-14.19-106.85-42.58   s-47.73-63.02-51.88-103.88l-28.03-316.78v-14.55c0-42.22,13.83-78.24,41.5-108.03c28.36-30.46,62.61-47.78,102.73-51.93   l1111.15-95.55c6.92-1.08,12.09-1.64,15.58-1.64c40.78,0,76.42,14.17,106.85,42.5c29.74,27.64,46.34,62.2,49.8,103.65l15.58,159.62   l-636,54.92l-6.23-81.75l-159.78,14.53l21.8,240.27l634.95-55h13.47c41.5,0,77.11,13.83,106.88,41.45   c30.43,26.95,47.73,61.15,51.88,102.6l28,316.09V1323.48z" id="svg_5" fill="#ffffff" fill-opacity="1"/>
</g></g></svg>